<svg height="192" viewBox="0 0 192 192" width="192" xmlns="http://www.w3.org/2000/svg"><g fill="none"><path d="m0 0h192v192h-192z"/><g stroke="#000" stroke-linecap="round" stroke-linejoin="round" stroke-width="12"><path d="m22 169.54v-76.2c0-4.99.97-9.94 3-14.5.03-.07.06-.14.1-.22 2.59-5.75 6.78-10.62 11.92-14.27l58.98-41.89 59.23 42.06c5.1 3.62 9.26 8.45 11.84 14.15.03.07.06.14.09.21 1.96 4.42 2.84 9.24 2.84 14.07v76.59h-41.62v-65.68l-32.38-27.41-32.38 27.41v65.68z"/><path d="m96 77.04c-2.56-3.33-8.36-11.79-9.25-24.05-1.17-16.15 7.01-27.59 9.25-30.53"/></g></g></svg>